<?xml version="1.0" encoding="utf-8"?>
<!-- Generator: Adobe Illustrator 16.0.0, SVG Export Plug-In . SVG Version: 6.00 Build 0)  -->
<!DOCTYPE svg PUBLIC "-//W3C//DTD SVG 1.1//EN" "http://www.w3.org/Graphics/SVG/1.1/DTD/svg11.dtd">
<svg version="1.1" id="Layer_1" xmlns="http://www.w3.org/2000/svg" xmlns:xlink="http://www.w3.org/1999/xlink" x="0px" y="0px"
	 width="747.193px" height="202.109px" viewBox="0 0 747.193 202.109" enable-background="new 0 0 747.193 202.109"
	 xml:space="preserve">
<g>
	<defs>
		<rect id="SVGID_1_" width="747.193" height="258.311"/>
	</defs>
	<clipPath id="SVGID_2_">
		<use xlink:href="#SVGID_1_"  overflow="visible"/>
	</clipPath>
	<g clip-path="url(#SVGID_2_)">
		<defs>
			<rect id="SVGID_3_" width="747.193" height="258.311"/>
		</defs>
		<clipPath id="SVGID_4_">
			<use xlink:href="#SVGID_3_"  overflow="visible"/>
		</clipPath>
		<path clip-path="url(#SVGID_4_)" fill="#CEE4F3" d="M192.943,93.402c-0.5,0.098-0.943,0.221-1.436,0.322
			c-0.184-0.404-0.361-0.809-0.576-1.205C191.611,92.811,192.231,93.123,192.943,93.402 M316.654,73.035
			c0-15.844-32.506-28.688-72.604-28.688c-34.697,0-63.666,9.625-70.85,22.482c-1.018-0.037-2.048-0.057-3.093-0.057
			c-9.831,0-18.586,1.672-24.296,4.277c-3.016-0.266-6.09-0.439-9.246-0.439c-31.287,0-56.65,13.611-56.65,30.402
			s25.363,30.4,56.65,30.4c14.913,0,28.439-3.115,38.557-8.172c11.646,4.955,30.076,8.172,50.891,8.172
			c35.238,0,63.807-9.178,63.807-20.502c0-4.631-4.836-8.889-12.896-12.32C300.484,93.85,316.654,84.199,316.654,73.035"/>
		<path clip-path="url(#SVGID_4_)" fill="#CEE4F3" d="M545.496,95.564c0.51,0.102,0.959,0.229,1.459,0.336
			c0.188-0.422,0.367-0.844,0.586-1.258C546.85,94.945,546.221,95.273,545.496,95.564 M419.799,74.299
			c0-16.541,33.025-29.951,73.768-29.951c35.256,0,64.691,10.051,71.99,23.473c1.033-0.037,2.082-0.061,3.143-0.061
			c9.988,0,18.885,1.746,24.688,4.469c3.062-0.279,6.188-0.459,9.395-0.459c31.789,0,57.561,14.211,57.561,31.74
			s-25.771,31.74-57.561,31.74h-90.887c-35.805,0-64.83-9.582-64.83-21.404c0-4.836,4.912-9.281,13.102-12.865
			C436.229,96.031,419.799,85.955,419.799,74.299"/>
		<g opacity="0.6" clip-path="url(#SVGID_4_)">
			<g>
				<defs>
					<rect id="SVGID_5_" x="41.699" y="31.678" width="157.334" height="76.012"/>
				</defs>
				<clipPath id="SVGID_6_">
					<use xlink:href="#SVGID_5_"  overflow="visible"/>
				</clipPath>
				<polygon clip-path="url(#SVGID_6_)" fill="#D1232A" points="98.545,56.68 98.545,93.576 182.033,98.6 182.033,71.973 				"/>
				<polygon clip-path="url(#SVGID_6_)" fill="#E28870" points="59.602,72.238 59.602,99.979 73.739,94.553 73.739,54.1 				"/>
				<polygon clip-path="url(#SVGID_6_)" fill="#F8E5DC" points="71.393,77.467 71.516,88.688 74.166,87.068 74.184,75.35 				"/>
				<polygon clip-path="url(#SVGID_6_)" fill="#F8E5DC" points="70.111,74.934 70.752,74.912 70.752,63.348 70.111,63.369 				"/>
				<polygon clip-path="url(#SVGID_6_)" fill="#F8E5DC" points="72.459,73.264 73.1,73.242 73.1,61.676 72.459,61.699 				"/>
				<polygon clip-path="url(#SVGID_6_)" fill="#F8E5DC" points="63.496,95.135 64.137,95.113 64.137,83.549 63.496,83.57 				"/>
				<polygon clip-path="url(#SVGID_6_)" fill="#F8E5DC" points="61.15,96.303 61.791,96.279 61.791,84.715 61.15,84.736 				"/>
				<polygon clip-path="url(#SVGID_6_)" fill="#F8E5DC" points="62.004,81.318 62.645,81.297 62.645,72.578 62.004,72.6 				"/>
				<polygon clip-path="url(#SVGID_6_)" fill="#D1232A" points="107.202,49.1 98.243,55.654 114.887,57.111 				"/>
				<polygon clip-path="url(#SVGID_6_)" fill="#D1232A" points="118.441,51.166 109.482,57.738 126.125,59.193 				"/>
				<polygon clip-path="url(#SVGID_6_)" fill="#D1232A" points="129.414,53.686 120.453,60.258 137.097,61.713 				"/>
				<polygon clip-path="url(#SVGID_6_)" fill="#D1232A" points="139.801,55.789 131.621,61.789 146.814,63.117 				"/>
				<polygon clip-path="url(#SVGID_6_)" fill="#D1232A" points="149.116,58.145 140.156,64.715 156.799,66.172 				"/>
				<polygon clip-path="url(#SVGID_6_)" fill="#D1232A" points="157.918,59.969 148.959,66.539 165.602,67.996 				"/>
				<polygon clip-path="url(#SVGID_6_)" fill="#D1232A" points="166.409,62.189 158.293,68.141 173.368,69.459 				"/>
				<polygon clip-path="url(#SVGID_6_)" fill="#D1232A" points="174.139,64.449 167.629,69.223 179.721,70.281 				"/>
				<rect x="174.52" y="69.527" clip-path="url(#SVGID_6_)" fill="#D1232A" width="1.245" height="36.941"/>
				
					<rect x="174.52" y="69.527" clip-path="url(#SVGID_6_)" fill="none" stroke="#FFFFFF" stroke-width="0.445" width="1.245" height="36.941"/>
				<rect x="147.758" y="63.658" clip-path="url(#SVGID_6_)" fill="#D1232A" width="0.978" height="33.697"/>
				
					<rect x="147.758" y="63.658" clip-path="url(#SVGID_6_)" fill="none" stroke="#FFFFFF" stroke-width="0.445" width="0.978" height="33.697"/>
				<polygon clip-path="url(#SVGID_6_)" fill="#E49179" points="74.807,94.553 152.691,98.598 152.691,70.281 74.539,54.098 				"/>
				<polygon clip-path="url(#SVGID_6_)" fill="#F8E5DC" points="80.098,72.242 82.586,72.33 82.586,60.764 80.098,60.678 				"/>
				<polygon clip-path="url(#SVGID_6_)" fill="#F8E5DC" points="86.854,73.363 89.342,73.451 89.342,62.451 86.854,62.363 				"/>
				<polygon clip-path="url(#SVGID_6_)" fill="#F8E5DC" points="93.258,74.4 95.746,74.486 95.746,63.486 93.258,63.4 				"/>
				<polygon clip-path="url(#SVGID_6_)" fill="#F8E5DC" points="99.567,75.361 102.056,75.447 102.056,64.447 99.567,64.361 				"/>
				<polygon clip-path="url(#SVGID_6_)" fill="#F8E5DC" points="105.436,89.682 107.924,89.77 107.924,65.621 105.436,65.533 				
					"/>
				<polygon clip-path="url(#SVGID_6_)" fill="#F8E5DC" points="121.974,91.289 124.196,91.367 124.196,68.385 121.974,68.309 				
					"/>
				<polygon clip-path="url(#SVGID_6_)" fill="#F8E5DC" points="111.305,76.777 113.793,76.863 113.793,66.553 111.305,66.465 				
					"/>
				<polygon clip-path="url(#SVGID_6_)" fill="#F8E5DC" points="116.416,77.658 118.904,77.746 118.904,67.434 116.416,67.348 				
					"/>
				<polygon clip-path="url(#SVGID_6_)" fill="#F8E5DC" points="127.088,78.859 129.221,78.934 129.221,69.42 127.088,69.346 				
					"/>
				<polygon clip-path="url(#SVGID_6_)" fill="#F8E5DC" points="131.674,79.35 133.807,79.424 133.807,69.91 131.674,69.836 				"/>
				<polygon clip-path="url(#SVGID_6_)" fill="#F8E5DC" points="136.262,79.99 138.395,80.064 138.395,70.801 136.262,70.727 				
					"/>
				<polygon clip-path="url(#SVGID_6_)" fill="#F8E5DC" points="140.742,80.646 142.875,80.723 142.875,71.459 140.742,71.385 				
					"/>
				<polygon clip-path="url(#SVGID_6_)" fill="#F8E5DC" points="145.117,81.182 147.249,81.256 147.249,71.992 145.117,71.918 				
					"/>
				<polygon clip-path="url(#SVGID_6_)" fill="#F8E5DC" points="149.171,81.715 151.304,81.789 151.304,72.525 149.171,72.451 				
					"/>
				<polygon clip-path="url(#SVGID_6_)" fill="#F8E5DC" points="149.171,95.66 150.984,95.723 150.984,84.357 149.171,84.295 				
					"/>
				<polygon clip-path="url(#SVGID_6_)" fill="#F8E5DC" points="145.117,95.34 146.717,95.395 146.717,84.029 145.117,83.975 				
					"/>
				<polygon clip-path="url(#SVGID_6_)" fill="#F8E5DC" points="141.045,95.299 142.645,95.355 142.645,83.99 141.045,83.934 				
					"/>
				<polygon clip-path="url(#SVGID_6_)" fill="#F8E5DC" points="136.6,92.359 138.199,92.414 138.199,83.188 136.6,83.133 				"/>
				<polygon clip-path="url(#SVGID_6_)" fill="#F8E5DC" points="131.709,91.645 133.309,91.699 133.309,82.473 131.709,82.418 				
					"/>
				<polygon clip-path="url(#SVGID_6_)" fill="#F8E5DC" points="126.979,91.047 128.58,91.104 128.58,81.877 126.979,81.82 				"/>
				<polygon clip-path="url(#SVGID_6_)" fill="#F8E5DC" points="116.311,91.086 118.799,91.172 118.799,80.861 116.311,80.773 				
					"/>
				<polygon clip-path="url(#SVGID_6_)" fill="#F8E5DC" points="111.082,93.322 113.57,93.41 113.57,80.197 111.082,80.111 				"/>
				<polygon clip-path="url(#SVGID_6_)" fill="#F8E5DC" points="99.523,89.373 102.012,89.461 102.012,78.459 99.523,78.373 				"/>
				<polygon clip-path="url(#SVGID_6_)" fill="#F8E5DC" points="93.371,91.842 95.859,91.928 95.859,77.766 93.371,77.68 				"/>
				<polygon clip-path="url(#SVGID_6_)" fill="#F8E5DC" points="74.913,75.439 74.699,87.389 89.299,88.242 89.529,77.146 				"/>
				<rect x="166.252" y="68.014" clip-path="url(#SVGID_6_)" fill="#D1232A" width="1.244" height="36.941"/>
				
					<rect x="166.252" y="68.014" clip-path="url(#SVGID_6_)" fill="none" stroke="#FFFFFF" stroke-width="0.445" width="1.244" height="36.941"/>
				<rect x="157.715" y="66.307" clip-path="url(#SVGID_6_)" fill="#D1232A" width="1.246" height="36.941"/>
				
					<rect x="157.715" y="66.307" clip-path="url(#SVGID_6_)" fill="none" stroke="#FFFFFF" stroke-width="0.445" width="1.246" height="36.941"/>
				<polygon clip-path="url(#SVGID_6_)" fill="#D1232A" points="98.545,56.588 98.226,55.611 110.922,55.734 117.75,57.016 
					127.459,58.83 135.994,61.283 145.17,62.883 154.56,64.377 162.383,66.404 170.99,67.791 178.672,69.711 179.721,70.281 
					181.979,71.953 137.062,65.123 98.545,57.389 				"/>
			</g>
		</g>
		<g opacity="0.75" clip-path="url(#SVGID_4_)">
			<g>
				<defs>
					<rect id="SVGID_7_" x="39.48" y="30.922" width="157.334" height="76.014"/>
				</defs>
				<clipPath id="SVGID_8_">
					<use xlink:href="#SVGID_7_"  overflow="visible"/>
				</clipPath>
				<polygon clip-path="url(#SVGID_8_)" fill="#0074A8" points="96.327,55.924 96.327,92.822 179.814,97.844 179.814,71.217 				"/>
				<polygon clip-path="url(#SVGID_8_)" fill="#5AA1C9" points="57.385,71.482 57.385,99.223 71.521,93.799 71.521,53.344 				"/>
				<polygon clip-path="url(#SVGID_8_)" fill="#FFFFFF" points="69.174,76.711 69.298,87.932 71.947,86.312 71.966,74.596 				"/>
				<polygon clip-path="url(#SVGID_8_)" fill="#D9E5F0" points="67.893,74.18 68.533,74.156 68.533,62.592 67.893,62.615 				"/>
				<polygon clip-path="url(#SVGID_8_)" fill="#D9E5F0" points="70.24,72.508 70.881,72.486 70.881,60.922 70.24,60.943 				"/>
				<polygon clip-path="url(#SVGID_8_)" fill="#D9E5F0" points="61.277,94.381 61.918,94.357 61.918,82.793 61.277,82.816 				"/>
				<polygon clip-path="url(#SVGID_8_)" fill="#D9E5F0" points="58.932,95.547 59.572,95.525 59.572,83.959 58.932,83.982 				"/>
				<polygon clip-path="url(#SVGID_8_)" fill="#D9E5F0" points="59.785,80.562 60.426,80.541 60.426,71.822 59.785,71.846 				"/>
				<polygon clip-path="url(#SVGID_8_)" fill="#0074A8" points="104.984,48.344 96.025,54.9 112.669,56.355 				"/>
				<polygon clip-path="url(#SVGID_8_)" fill="#0074A8" points="116.224,50.41 107.264,56.982 123.906,58.438 				"/>
				<polygon clip-path="url(#SVGID_8_)" fill="#0074A8" points="127.195,52.932 118.235,59.502 134.879,60.959 				"/>
				<polygon clip-path="url(#SVGID_8_)" fill="#0074A8" points="137.582,55.035 129.402,61.033 144.596,62.363 				"/>
				<polygon clip-path="url(#SVGID_8_)" fill="#0074A8" points="146.898,57.389 137.938,63.961 154.581,65.416 				"/>
				<polygon clip-path="url(#SVGID_8_)" fill="#0074A8" points="155.7,59.213 146.74,65.785 163.383,67.24 				"/>
				<polygon clip-path="url(#SVGID_8_)" fill="#0074A8" points="164.191,61.436 156.075,67.385 171.15,68.705 				"/>
				<polygon clip-path="url(#SVGID_8_)" fill="#0074A8" points="171.922,63.693 165.411,68.467 177.504,69.525 				"/>
				
					<rect x="172.301" y="68.771" clip-path="url(#SVGID_8_)" fill="none" stroke="#FFFFFF" stroke-width="0.445" width="1.246" height="36.941"/>
				
					<rect x="145.539" y="62.902" clip-path="url(#SVGID_8_)" fill="none" stroke="#FFFFFF" stroke-width="0.445" width="0.979" height="33.697"/>
				<polygon clip-path="url(#SVGID_8_)" fill="#68A8CE" points="72.588,93.799 150.475,97.844 150.475,69.525 72.32,53.344 				"/>
				<polygon clip-path="url(#SVGID_8_)" fill="#D9E5F0" points="77.879,71.488 80.367,71.574 80.367,60.01 77.879,59.922 				"/>
				<polygon clip-path="url(#SVGID_8_)" fill="#D9E5F0" points="84.635,72.609 87.123,72.695 87.123,61.695 84.635,61.607 				"/>
				<polygon clip-path="url(#SVGID_8_)" fill="#D9E5F0" points="91.039,73.645 93.527,73.732 93.527,62.73 91.039,62.645 				"/>
				<polygon clip-path="url(#SVGID_8_)" fill="#D9E5F0" points="97.35,74.605 99.838,74.693 99.838,63.691 97.35,63.605 				"/>
				<polygon clip-path="url(#SVGID_8_)" fill="#D9E5F0" points="103.218,88.928 105.706,89.014 105.706,64.865 103.218,64.779 				
					"/>
				<polygon clip-path="url(#SVGID_8_)" fill="#D9E5F0" points="119.756,90.533 121.979,90.611 121.979,67.631 119.756,67.553 				
					"/>
				<polygon clip-path="url(#SVGID_8_)" fill="#D9E5F0" points="109.086,76.021 111.574,76.107 111.574,65.797 109.086,65.711 				
					"/>
				<polygon clip-path="url(#SVGID_8_)" fill="#D9E5F0" points="114.197,76.904 116.687,76.99 116.687,66.68 114.197,66.592 				"/>
				<polygon clip-path="url(#SVGID_8_)" fill="#D9E5F0" points="124.869,78.105 127.002,78.18 127.002,68.666 124.869,68.59 				"/>
				<polygon clip-path="url(#SVGID_8_)" fill="#D9E5F0" points="129.455,78.594 131.588,78.668 131.588,69.154 129.455,69.08 				
					"/>
				<polygon clip-path="url(#SVGID_8_)" fill="#D9E5F0" points="134.044,79.236 136.176,79.311 136.176,70.045 134.044,69.971 				
					"/>
				<polygon clip-path="url(#SVGID_8_)" fill="#D9E5F0" points="138.523,79.893 140.656,79.967 140.656,70.703 138.523,70.629 				
					"/>
				<polygon clip-path="url(#SVGID_8_)" fill="#D9E5F0" points="142.898,80.426 145.031,80.5 145.031,71.238 142.898,71.164 				"/>
				<polygon clip-path="url(#SVGID_8_)" fill="#D9E5F0" points="146.953,80.959 149.086,81.033 149.086,71.771 146.953,71.697 				
					"/>
				<polygon clip-path="url(#SVGID_8_)" fill="#D9E5F0" points="146.953,94.904 148.767,94.969 148.767,83.604 146.953,83.539 				
					"/>
				<polygon clip-path="url(#SVGID_8_)" fill="#D9E5F0" points="142.898,94.584 144.498,94.639 144.498,83.275 142.898,83.219 				
					"/>
				<polygon clip-path="url(#SVGID_8_)" fill="#D9E5F0" points="138.826,94.543 140.427,94.6 140.427,83.234 138.826,83.18 				"/>
				<polygon clip-path="url(#SVGID_8_)" fill="#D9E5F0" points="134.381,91.604 135.981,91.66 135.981,82.434 134.381,82.377 				
					"/>
				<polygon clip-path="url(#SVGID_8_)" fill="#D9E5F0" points="129.49,90.889 131.09,90.945 131.09,81.719 129.49,81.662 				"/>
				<polygon clip-path="url(#SVGID_8_)" fill="#D9E5F0" points="124.762,90.293 126.361,90.348 126.361,81.121 124.762,81.066 				
					"/>
				<polygon clip-path="url(#SVGID_8_)" fill="#D9E5F0" points="114.092,90.33 116.58,90.416 116.58,80.105 114.092,80.02 				"/>
				<polygon clip-path="url(#SVGID_8_)" fill="#D9E5F0" points="108.864,92.568 111.353,92.654 111.353,79.443 108.864,79.355 				
					"/>
				<polygon clip-path="url(#SVGID_8_)" fill="#D9E5F0" points="97.305,88.617 99.793,88.705 99.793,77.705 97.305,77.617 				"/>
				<polygon clip-path="url(#SVGID_8_)" fill="#D9E5F0" points="91.152,91.086 93.642,91.172 93.642,77.012 91.152,76.924 				"/>
				<polygon clip-path="url(#SVGID_8_)" fill="#FFFFFF" points="72.695,74.684 72.481,86.635 87.08,87.486 87.312,76.391 				"/>
				
					<rect x="164.033" y="67.26" clip-path="url(#SVGID_8_)" fill="none" stroke="#FFFFFF" stroke-width="0.445" width="1.245" height="36.939"/>
				
					<rect x="155.498" y="65.551" clip-path="url(#SVGID_8_)" fill="none" stroke="#FFFFFF" stroke-width="0.445" width="1.244" height="36.941"/>
				<polygon clip-path="url(#SVGID_8_)" fill="#0074A8" points="96.327,55.834 96.008,54.855 108.703,54.979 115.532,56.26 
					125.241,58.074 133.776,60.529 142.952,62.129 152.342,63.623 160.165,65.648 168.771,67.037 176.454,68.957 177.504,69.525 
					179.762,71.197 134.844,64.369 96.327,56.633 				"/>
			</g>
		</g>
		<path clip-path="url(#SVGID_4_)" fill="none" stroke="#929497" stroke-width="0.476" d="M62.68,34.654
			c0,0,9.065-0.404,27.144,8.893"/>
		<polygon clip-path="url(#SVGID_4_)" fill="#929497" points="93.998,45.693 89.451,40.779 87.355,44.854 		"/>
	</g>
	<g clip-path="url(#SVGID_2_)">
		<text transform="matrix(1 0 0 1 16.2192 38.439)"><tspan x="0" y="0" fill="#BBBDBF" font-family="'LFTEtica-Regular'" font-size="9.1188">N</tspan><tspan x="6.583" y="0" fill="#BBBDBF" font-family="'LFTEtica-Regular'" font-size="9.1188">E</tspan><tspan x="12.255" y="0" fill="#BBBDBF" font-family="'LFTEtica-Regular'" font-size="9.1188">W </tspan><tspan x="22.55" y="0" fill="#BBBDBF" font-family="'LFTEtica-Regular'" font-size="9.1188">S</tspan><tspan x="27.949" y="0" fill="#BBBDBF" font-family="'LFTEtica-Regular'" font-size="9.1188">U</tspan><tspan x="34.414" y="0" fill="#BBBDBF" font-family="'LFTEtica-Regular'" font-size="9.1188">B</tspan></text>
	</g>
	<g clip-path="url(#SVGID_2_)">
		<defs>
			<rect id="SVGID_9_" width="747.193" height="258.311"/>
		</defs>
		<clipPath id="SVGID_10_">
			<use xlink:href="#SVGID_9_"  overflow="visible"/>
		</clipPath>
		<g opacity="0.7" clip-path="url(#SVGID_10_)">
			<g>
				<defs>
					<rect id="SVGID_11_" x="208.156" y="20.182" width="345.363" height="102.601"/>
				</defs>
				<clipPath id="SVGID_12_">
					<use xlink:href="#SVGID_11_"  overflow="visible"/>
				</clipPath>
				<path clip-path="url(#SVGID_12_)" fill="#D1232A" d="M237.034,35.182c0,0-5.362,0-5.362,5.361v75.877c0,0,0,5.363,5.362,5.363
					h229.499c0,0,5.363,0,5.363-5.363V40.543c0,0,0-5.361-5.363-5.361H237.034z"/>
				<g clip-path="url(#SVGID_12_)">
					<text transform="matrix(1 0 0 1 238.7051 90.4644)"><tspan x="0" y="0" fill="#FFFFFF" font-family="'LFTEtica-Bold'" font-size="35.1222" letter-spacing="4">E</tspan><tspan x="25.604" y="0" fill="#FFFFFF" font-family="'LFTEtica-Bold'" font-size="35.1222" letter-spacing="3">L</tspan><tspan x="49.101" y="0" fill="#FFFFFF" font-family="'LFTEtica-Bold'" font-size="35.1222" letter-spacing="4">E</tspan><tspan x="74.107" y="0" fill="#FFFFFF" font-family="'LFTEtica-Bold'" font-size="35.1222" letter-spacing="4">C</tspan><tspan x="102.485" y="0" fill="#FFFFFF" font-family="'LFTEtica-Bold'" font-size="35.1222" letter-spacing="4">T</tspan><tspan x="128.511" y="0" fill="#FFFFFF" font-family="'LFTEtica-Bold'" font-size="35.1222" letter-spacing="4">I</tspan><tspan x="142.98" y="0" fill="#FFFFFF" font-family="'LFTEtica-Bold'" font-size="35.1222" letter-spacing="4">O</tspan><tspan x="174.836" y="0" fill="#FFFFFF" font-family="'LFTEtica-Bold'" font-size="35.1222" letter-spacing="4">N</tspan><tspan x="204.514" y="0" fill="#FFFFFF" font-family="'LFTEtica-Bold'" font-size="35.1222">S</tspan></text>
				</g>
				
					<line clip-path="url(#SVGID_12_)" fill="none" stroke="#FFFFFF" stroke-width="1.787" x1="241.967" y1="55.115" x2="461.6" y2="55.115"/>
				
					<line clip-path="url(#SVGID_12_)" fill="none" stroke="#FFFFFF" stroke-width="1.787" x1="241.967" y1="101.045" x2="461.6" y2="101.045"/>
				<rect x="317.627" y="96.6" clip-path="url(#SVGID_12_)" fill="#D1232A" width="68.312" height="17.947"/>
				<g clip-path="url(#SVGID_12_)">
					<text transform="matrix(1 0 0 1 325.6348 112.8345)"><tspan x="0" y="0" fill="#FFFFFF" font-family="'LFTEtica-Book'" font-size="22.2379" letter-spacing="1">2</tspan><tspan x="13.054" y="0" fill="#FFFFFF" font-family="'LFTEtica-Book'" font-size="22.2379" letter-spacing="1">0</tspan><tspan x="28.354" y="0" fill="#FFFFFF" font-family="'LFTEtica-Book'" font-size="22.2379" letter-spacing="1">1</tspan><tspan x="40.25" y="0" fill="#FFFFFF" font-family="'LFTEtica-Book'" font-size="22.2379">4</tspan></text>
				</g>
				<polygon clip-path="url(#SVGID_12_)" fill="#D1232A" points="317.627,46.791 317.627,60.33 385.939,60.33 385.939,46.791 
					381.594,42.094 322.592,42.094 				"/>
				<g clip-path="url(#SVGID_12_)">
					<text transform="matrix(1 0 0 1 324.4541 58.3276)"><tspan x="0" y="0" fill="#FFFFFF" font-family="'LFTEtica-SemiBold'" font-size="22.2379" letter-spacing="2">A</tspan><tspan x="17.856" y="0" fill="#FFFFFF" font-family="'LFTEtica-SemiBold'" font-size="22.2379" letter-spacing="2">M</tspan><tspan x="39.738" y="0" fill="#FFFFFF" font-family="'LFTEtica-SemiBold'" font-size="22.2379">S</tspan></text>
				</g>
			</g>
		</g>
		<g opacity="0.75" clip-path="url(#SVGID_10_)">
			<g>
				<defs>
					<rect id="SVGID_13_" x="219.392" y="24.219" width="258.224" height="95.601"/>
				</defs>
				<clipPath id="SVGID_14_">
					<use xlink:href="#SVGID_13_"  overflow="visible"/>
				</clipPath>
				<path clip-path="url(#SVGID_14_)" fill="#008CC7" d="M233.754,32.219c0,0-5.363,0-5.363,5.361v75.877c0,0,0,5.363,5.363,5.363
					h229.498c0,0,5.363,0,5.363-5.363V37.58c0,0,0-5.361-5.363-5.361H233.754z"/>
			</g>
		</g>
	</g>
	<g clip-path="url(#SVGID_2_)">
		<text transform="matrix(1 0 0 1 235.4243 87.5015)"><tspan x="0" y="0" fill="#FFFFFF" font-family="'LFTEtica-Bold'" font-size="35.1222" letter-spacing="4">E</tspan><tspan x="25.604" y="0" fill="#FFFFFF" font-family="'LFTEtica-Bold'" font-size="35.1222" letter-spacing="3">L</tspan><tspan x="49.101" y="0" fill="#FFFFFF" font-family="'LFTEtica-Bold'" font-size="35.1222" letter-spacing="4">E</tspan><tspan x="74.108" y="0" fill="#FFFFFF" font-family="'LFTEtica-Bold'" font-size="35.1222" letter-spacing="4">C</tspan><tspan x="102.486" y="0" fill="#FFFFFF" font-family="'LFTEtica-Bold'" font-size="35.1222" letter-spacing="4">T</tspan><tspan x="128.51" y="0" fill="#FFFFFF" font-family="'LFTEtica-Bold'" font-size="35.1222" letter-spacing="4">I</tspan><tspan x="142.981" y="0" fill="#FFFFFF" font-family="'LFTEtica-Bold'" font-size="35.1222" letter-spacing="4">O</tspan><tspan x="174.836" y="0" fill="#FFFFFF" font-family="'LFTEtica-Bold'" font-size="35.1222" letter-spacing="4">N</tspan><tspan x="204.514" y="0" fill="#FFFFFF" font-family="'LFTEtica-Bold'" font-size="35.1222">S</tspan></text>
	</g>
	<g clip-path="url(#SVGID_2_)">
		<text transform="matrix(1 0 0 1 324.5283 111.8872)"><tspan x="0" y="0" fill="#FFFFFF" font-family="'LFTEtica-Book'" font-size="22.2379" letter-spacing="1">2</tspan><tspan x="13.054" y="0" fill="#FFFFFF" font-family="'LFTEtica-Book'" font-size="22.2379" letter-spacing="1">0</tspan><tspan x="28.354" y="0" fill="#FFFFFF" font-family="'LFTEtica-Book'" font-size="22.2379" letter-spacing="1">1</tspan><tspan x="40.25" y="0" fill="#FFFFFF" font-family="'LFTEtica-Book'" font-size="22.2379">4</tspan></text>
	</g>
	<g clip-path="url(#SVGID_2_)">
		<text transform="matrix(1 0 0 1 322.6387 57.3599)"><tspan x="0" y="0" fill="#FFFFFF" font-family="'LFTEtica-SemiBold'" font-size="22.2379" letter-spacing="2">A</tspan><tspan x="17.856" y="0" fill="#FFFFFF" font-family="'LFTEtica-SemiBold'" font-size="22.2379" letter-spacing="2">M</tspan><tspan x="39.738" y="0" fill="#FFFFFF" font-family="'LFTEtica-SemiBold'" font-size="22.2379">S</tspan></text>
	</g>
	<g clip-path="url(#SVGID_2_)">
		<defs>
			<rect id="SVGID_15_" width="747.193" height="258.311"/>
		</defs>
		<clipPath id="SVGID_16_">
			<use xlink:href="#SVGID_15_"  overflow="visible"/>
		</clipPath>
		<path clip-path="url(#SVGID_16_)" fill="#FFFFFF" d="M336.734,135.25c0.828,0,1.498-0.67,1.498-1.498
			c0-0.826-0.67-1.498-1.498-1.498s-1.498,0.672-1.498,1.498C335.236,134.58,335.906,135.25,336.734,135.25"/>
		<path clip-path="url(#SVGID_16_)" fill="#FFFFFF" d="M361.758,133.752c0.828,0,1.498-0.67,1.498-1.498s-0.67-1.498-1.498-1.498
			s-1.498,0.67-1.498,1.498S360.93,133.752,361.758,133.752"/>
		<path clip-path="url(#SVGID_16_)" fill="#FFFFFF" d="M327.221,127.031c0.828,0,1.498-0.67,1.498-1.498s-0.67-1.498-1.498-1.498
			s-1.498,0.67-1.498,1.498S326.393,127.031,327.221,127.031"/>
		<path clip-path="url(#SVGID_16_)" fill="#FFFFFF" d="M371.154,125.316c0.828,0,1.498-0.672,1.498-1.498
			c0-0.828-0.67-1.5-1.498-1.5s-1.498,0.672-1.498,1.5C369.656,124.645,370.326,125.316,371.154,125.316"/>
	</g>
	
		<line clip-path="url(#SVGID_2_)" fill="none" stroke="#FFFFFF" stroke-width="1.491" x1="237.785" y1="99.848" x2="313.844" y2="99.848"/>
	
		<line clip-path="url(#SVGID_2_)" fill="none" stroke="#FFFFFF" stroke-width="1.491" x1="239.932" y1="53.793" x2="315.99" y2="53.793"/>
	
		<line clip-path="url(#SVGID_2_)" fill="none" stroke="#FFFFFF" stroke-width="1.491" x1="384.654" y1="53.793" x2="460.713" y2="53.793"/>
	
		<line clip-path="url(#SVGID_2_)" fill="none" stroke="#FFFFFF" stroke-width="1.491" x1="382.688" y1="99.848" x2="458.746" y2="99.848"/>
	<g clip-path="url(#SVGID_2_)">
		<text transform="matrix(1 0 0 1 52.5703 144.3931)"><tspan x="0" y="0" fill="#BBBDBF" font-family="'LFTEtica-Regular'" font-size="9.1188">Y</tspan><tspan x="5.161" y="0" fill="#BBBDBF" font-family="'LFTEtica-Regular'" font-size="9.1188">O</tspan><tspan x="12.265" y="0" fill="#BBBDBF" font-family="'LFTEtica-Regular'" font-size="9.1188">U</tspan><tspan x="18.73" y="0" fill="#BBBDBF" font-family="'LFTEtica-Regular'" font-size="9.1188">R </tspan><tspan x="26.38" y="0" fill="#BBBDBF" font-family="'LFTEtica-Regular'" font-size="9.1188">S</tspan><tspan x="31.952" y="0" fill="#BBBDBF" font-family="'LFTEtica-Regular'" font-size="9.1188">T</tspan><tspan x="37.386" y="0" fill="#BBBDBF" font-family="'LFTEtica-Regular'" font-size="9.1188">U</tspan><tspan x="43.852" y="0" fill="#BBBDBF" font-family="'LFTEtica-Regular'" font-size="9.1188">D</tspan><tspan x="50.344" y="0" fill="#BBBDBF" font-family="'LFTEtica-Regular'" font-size="9.1188">E</tspan><tspan x="55.77" y="0" fill="#BBBDBF" font-family="'LFTEtica-Regular'" font-size="9.1188">N</tspan><tspan x="62.354" y="0" fill="#BBBDBF" font-family="'LFTEtica-Regular'" font-size="9.1188">T </tspan></text>
	</g>
	<g clip-path="url(#SVGID_2_)">
		<text transform="matrix(1 0 0 1 75.6499 154.9165)"><tspan x="0" y="0" fill="#BBBDBF" font-family="'LFTEtica-Regular'" font-size="9.1188">F</tspan><tspan x="5.079" y="0" fill="#BBBDBF" font-family="'LFTEtica-Regular'" font-size="9.1188">E</tspan><tspan x="10.514" y="0" fill="#BBBDBF" font-family="'LFTEtica-Regular'" font-size="9.1188">E</tspan><tspan x="16.149" y="0" fill="#BBBDBF" font-family="'LFTEtica-Regular'" font-size="9.1188">S</tspan></text>
	</g>
	<g clip-path="url(#SVGID_2_)">
		<defs>
			<rect id="SVGID_17_" width="747.193" height="258.311"/>
		</defs>
		<clipPath id="SVGID_18_">
			<use xlink:href="#SVGID_17_"  overflow="visible"/>
		</clipPath>
		<path clip-path="url(#SVGID_18_)" fill="none" stroke="#929497" stroke-width="0.476" d="M126.142,144.514
			c0,0,7.974,5.561,26.048-4.775"/>
		<path clip-path="url(#SVGID_18_)" fill="#929497" d="M156.266,137.406l-4.324,5.111c0,0,0.248-2.779-2.274-3.975L156.266,137.406"
			/>
		<path clip-path="url(#SVGID_18_)" fill="#009FD2" d="M280.51,157.662c1.623,0,2.939-1.316,2.939-2.939
			c0-1.625-1.316-2.941-2.939-2.941c-1.625,0-2.939,1.316-2.939,2.941C277.57,156.346,278.885,157.662,280.51,157.662"/>
		<path clip-path="url(#SVGID_18_)" fill="#009FD2" d="M280.51,168.256c1.623,0,2.939-1.316,2.939-2.939
			c0-1.625-1.316-2.941-2.939-2.941c-1.625,0-2.939,1.316-2.939,2.941C277.57,166.939,278.885,168.256,280.51,168.256"/>
	</g>
	<g clip-path="url(#SVGID_2_)">
		<text transform="matrix(1 0 0 1 236.0425 160.3101)"><tspan x="0" y="0" fill="#008CC7" font-family="'LFTEtica-Bold'" font-size="20.4424">1</tspan><tspan x="10.752" y="0" fill="#008CC7" font-family="'LFTEtica-Bold'" font-size="20.4424">4</tspan></text>
	</g>
	<g clip-path="url(#SVGID_2_)">
		<text transform="matrix(1 0 0 1 234.7207 172.5757)"><tspan x="0" y="0" fill="#008CC7" font-family="'LFTEtica-Regular'" font-size="10.63">D</tspan><tspan x="7.218" y="0" fill="#008CC7" font-family="'LFTEtica-Regular'" font-size="10.63">A</tspan><tspan x="13.426" y="0" fill="#008CC7" font-family="'LFTEtica-Regular'" font-size="10.63">Y</tspan><tspan x="19.623" y="0" fill="#008CC7" font-family="'LFTEtica-Regular'" font-size="10.63">S</tspan></text>
	</g>
	<g clip-path="url(#SVGID_2_)">
		<text transform="matrix(1 0 0 1 304.6143 160.3101)" fill="#008CC7" font-family="'LFTEtica-Bold'" font-size="20.4424">3</text>
	</g>
	<g clip-path="url(#SVGID_2_)">
		<text transform="matrix(1 0 0 1 300.0146 172.5757)"><tspan x="0" y="0" fill="#008CC7" font-family="'LFTEtica-Regular'" font-size="10.63">H</tspan><tspan x="7.547" y="0" fill="#008CC7" font-family="'LFTEtica-Regular'" font-size="10.63">R</tspan><tspan x="14.371" y="0" fill="#008CC7" font-family="'LFTEtica-Regular'" font-size="10.63">S</tspan></text>
	</g>
	<g clip-path="url(#SVGID_2_)">
		<text transform="matrix(1 0 0 1 365.6875 160.3101)"><tspan x="0" y="0" fill="#008CC7" font-family="'LFTEtica-Bold'" font-size="20.4424">2</tspan><tspan x="11.305" y="0" fill="#008CC7" font-family="'LFTEtica-Bold'" font-size="20.4424">3</tspan></text>
	</g>
	<g clip-path="url(#SVGID_2_)">
		<text transform="matrix(1 0 0 1 364.1074 172.5757)"><tspan x="0" y="0" fill="#008CC7" font-family="'LFTEtica-Regular'" font-size="10.63">M</tspan><tspan x="9.312" y="0" fill="#008CC7" font-family="'LFTEtica-Regular'" font-size="10.63">I</tspan><tspan x="12.086" y="0" fill="#008CC7" font-family="'LFTEtica-Regular'" font-size="10.63">N</tspan><tspan x="19.634" y="0" fill="#008CC7" font-family="'LFTEtica-Regular'" font-size="10.63">S</tspan></text>
	</g>
	<g clip-path="url(#SVGID_2_)">
		<text transform="matrix(1 0 0 1 439.1201 160.3101)"><tspan x="0" y="0" fill="#008CC7" font-family="'LFTEtica-Bold'" font-size="20.4424">0</tspan><tspan x="12.449" y="0" fill="#008CC7" font-family="'LFTEtica-Bold'" font-size="20.4424">7</tspan></text>
	</g>
	<g clip-path="url(#SVGID_2_)">
		<text transform="matrix(1 0 0 1 437.4551 172.5757)"><tspan x="0" y="0" fill="#008CC7" font-family="'LFTEtica-Regular'" font-size="10.63">S</tspan><tspan x="6.261" y="0" fill="#008CC7" font-family="'LFTEtica-Regular'" font-size="10.63">E</tspan><tspan x="12.458" y="0" fill="#008CC7" font-family="'LFTEtica-Regular'" font-size="10.63">C</tspan><tspan x="19.708" y="0" fill="#008CC7" font-family="'LFTEtica-Regular'" font-size="10.63">S</tspan></text>
	</g>
	<g clip-path="url(#SVGID_2_)">
		<defs>
			<rect id="SVGID_19_" width="747.193" height="258.311"/>
		</defs>
		<clipPath id="SVGID_20_">
			<use xlink:href="#SVGID_19_"  overflow="visible"/>
		</clipPath>
		<path clip-path="url(#SVGID_20_)" fill="#009FD2" d="M338.98,157.662c1.623,0,2.939-1.316,2.939-2.939
			c0-1.625-1.316-2.941-2.939-2.941c-1.625,0-2.941,1.316-2.941,2.941C336.039,156.346,337.355,157.662,338.98,157.662"/>
		<path clip-path="url(#SVGID_20_)" fill="#009FD2" d="M338.98,168.256c1.623,0,2.939-1.316,2.939-2.939
			c0-1.625-1.316-2.941-2.939-2.941c-1.625,0-2.941,1.316-2.941,2.941C336.039,166.939,337.355,168.256,338.98,168.256"/>
		<path clip-path="url(#SVGID_20_)" fill="#009FD2" d="M415.182,157.662c1.625,0,2.939-1.316,2.939-2.939
			c0-1.625-1.314-2.941-2.939-2.941c-1.623,0-2.939,1.316-2.939,2.941C412.242,156.346,413.559,157.662,415.182,157.662"/>
		<path clip-path="url(#SVGID_20_)" fill="#009FD2" d="M415.182,168.256c1.625,0,2.939-1.316,2.939-2.939
			c0-1.625-1.314-2.941-2.939-2.941c-1.623,0-2.939,1.316-2.939,2.941C412.242,166.939,413.559,168.256,415.182,168.256"/>
		<g opacity="0.6" clip-path="url(#SVGID_20_)">
			<g>
				<defs>
					<rect id="SVGID_21_" x="155.836" y="2.909" width="86.844" height="111.054"/>
				</defs>
				<clipPath id="SVGID_22_">
					<use xlink:href="#SVGID_21_"  overflow="visible"/>
				</clipPath>
				<path clip-path="url(#SVGID_22_)" fill="#D1232A" d="M178.33,29.246c0,0-2.019,0.58-1.439,2.598l6.074,21.188
					c0,0,0.58,2.018,2.599,1.439l23.206-6.654c0,0,2.02-0.578,1.439-2.598l-6.074-21.187c0,0-0.579-2.018-2.598-1.439L178.33,29.246
					z"/>
				<path clip-path="url(#SVGID_22_)" fill="#D1232A" d="M186.542,47.92c0,0-2.019,0.58-1.44,2.6l15.777,55.02
					c0,0,0.579,2.02,2.598,1.441l17.928-5.143c0,0,2.019-0.578,1.439-2.598l-15.777-55.02c0,0-0.578-2.02-2.598-1.441L186.542,47.92
					z"/>
				<path clip-path="url(#SVGID_22_)" fill="#F0C4B3" d="M195.666,46.34c4.783-1.371,7.551-6.363,6.179-11.146
					s-6.362-7.551-11.147-6.18c-4.785,1.373-7.551,6.363-6.179,11.148C185.891,44.945,190.882,47.713,195.666,46.34"/>
				<polygon clip-path="url(#SVGID_22_)" fill="#F0C4B3" points="189.13,56.242 189.13,56.242 192.541,68.137 195.282,67.352 
					191.872,55.457 				"/>
				<polygon clip-path="url(#SVGID_22_)" fill="#F0C4B3" points="194.217,54.783 194.217,54.783 197.629,66.678 200.369,65.893 
					196.959,53.998 				"/>
				<polygon clip-path="url(#SVGID_22_)" fill="#F0C4B3" points="198.917,53.457 198.917,53.457 202.328,65.35 205.069,64.564 
					201.659,52.67 				"/>
				<polygon clip-path="url(#SVGID_22_)" fill="#F0C4B3" points="203.535,52.111 203.535,52.111 206.946,64.006 209.688,63.221 
					206.277,51.326 				"/>
			</g>
		</g>
		<g opacity="0.75" clip-path="url(#SVGID_20_)">
			<g>
				<defs>
					<rect id="SVGID_23_" x="153.127" y="2.047" width="86.845" height="111.053"/>
				</defs>
				<clipPath id="SVGID_24_">
					<use xlink:href="#SVGID_23_"  overflow="visible"/>
				</clipPath>
				<path clip-path="url(#SVGID_24_)" fill="#008CC7" d="M175.623,28.385c0,0-2.02,0.578-1.44,2.598l6.075,21.186
					c0,0,0.578,2.02,2.598,1.441l23.206-6.654c0,0,2.019-0.58,1.44-2.598l-6.076-21.188c0,0-0.578-2.018-2.596-1.438L175.623,28.385
					z"/>
				<path clip-path="url(#SVGID_24_)" fill="#008CC7" d="M183.834,47.059c0,0-2.02,0.578-1.439,2.598l15.776,55.021
					c0,0,0.579,2.018,2.599,1.439l17.926-5.141c0,0,2.02-0.578,1.44-2.598l-15.776-55.021c0,0-0.58-2.018-2.599-1.439
					L183.834,47.059z"/>
				<path clip-path="url(#SVGID_24_)" fill="#B1D6EC" d="M192.958,45.479c4.784-1.373,7.551-6.363,6.179-11.146
					c-1.372-4.785-6.363-7.553-11.146-6.18c-4.785,1.371-7.551,6.363-6.18,11.146C183.183,44.084,188.174,46.85,192.958,45.479"/>
				<polygon clip-path="url(#SVGID_24_)" fill="#B1D6EC" points="186.422,55.381 186.422,55.381 189.833,67.275 192.574,66.488 
					189.164,54.594 				"/>
				<polygon clip-path="url(#SVGID_24_)" fill="#B1D6EC" points="191.51,53.922 191.51,53.922 194.92,65.816 197.661,65.029 
					194.252,53.137 				"/>
				<polygon clip-path="url(#SVGID_24_)" fill="#B1D6EC" points="196.209,52.594 196.209,52.594 199.62,64.488 202.361,63.703 
					198.951,51.809 				"/>
				<polygon clip-path="url(#SVGID_24_)" fill="#B1D6EC" points="200.828,51.25 200.828,51.25 204.238,63.145 206.979,62.357 
					203.569,50.465 				"/>
			</g>
		</g>
		<path clip-path="url(#SVGID_20_)" fill="#FFFFFF" d="M177.965,97.961c0,0-0.559,2.246-2.202,3.873c0,0-11.013,8.359-12.511,12.393
			c-1.499,4.035-6.547,14.645,0.326,18.896c6.875,4.25,31.356,9.207,31.445,1.398c0.09-7.809,1.975-18.982-7.06-34.24
			c-1.813-3.896,4.05-5.398,5.116-6.477s1.934-1.129,0.705-3.631c-1.228-2.502-1.446-2.553-5.219-3.281
			c-3.771-0.73-4.555,1.383-7.308,0.848c-2.754-0.535-3.872-2.133-5.731,0.08c-1.857,2.211,2.396,5.318,3.188,7.119
			C179.509,96.738,177.965,97.961,177.965,97.961"/>
		<path clip-path="url(#SVGID_20_)" fill="none" stroke="#FFFFFF" stroke-width="5.709" d="M177.965,97.961
			c0,0-0.559,2.246-2.202,3.873c0,0-11.013,8.359-12.511,12.393c-1.499,4.035-6.547,14.645,0.326,18.896
			c6.875,4.25,31.356,9.207,31.445,1.398c0.09-7.809,1.975-18.982-7.06-34.24c-1.813-3.896,4.05-5.398,5.116-6.477
			s1.934-1.129,0.705-3.631c-1.228-2.502-1.446-2.553-5.219-3.281c-3.771-0.73-4.555,1.383-7.308,0.848
			c-2.754-0.535-3.872-2.133-5.731,0.08c-1.857,2.211,2.396,5.318,3.188,7.119C179.509,96.738,177.965,97.961,177.965,97.961z"/>
		<path clip-path="url(#SVGID_20_)" fill="#FFFFFF" d="M179.459,97.312c0,0-1.02-0.488-1.818,0.096
			c-0.799,0.582-0.799,0.582-0.283,1.459c0.515,0.879,6.58-0.336,10.027,1.328c3.448,1.666,0.422-4.113,0.547-2.459
			C188.055,99.395,180.479,97.801,179.459,97.312"/>
		<path clip-path="url(#SVGID_20_)" fill="none" stroke="#FFFFFF" stroke-width="5.709" d="M179.459,97.312
			c0,0-1.02-0.488-1.818,0.096c-0.799,0.582-0.799,0.582-0.283,1.459c0.515,0.879,6.58-0.336,10.027,1.328
			c3.448,1.666,0.422-4.113,0.547-2.459C188.055,99.395,180.479,97.801,179.459,97.312z"/>
		<path clip-path="url(#SVGID_20_)" fill="#FFFFFF" d="M175.918,128.766L175.918,128.766l2.996,0.582l0.422-2.164
			c2.731,0.088,4.656-1.314,5.17-3.957c0.477-2.451-0.777-4.252-3.433-5.607c-2.407-1.234-2.998-1.967-2.817-2.895
			c0.199-1.023,1.059-1.178,2.252-0.945c1.24,0.24,2.523,1.158,3.373,2.162l2.182-1.973c-0.805-1.117-2.076-2.205-3.609-2.822
			l0.389-1.998l-2.974-0.578l-0.379,1.951c-2.582-0.107-4.662,1.215-5.171,3.834c-0.523,2.689,0.932,4.33,3.447,5.658
			c2.469,1.295,2.834,1.936,2.658,2.84c-0.186,0.951-0.988,1.191-2.111,0.973c-1.288-0.25-2.824-1.24-3.992-2.604l-2.191,1.896
			c0.926,1.363,2.556,2.865,4.211,3.482L175.918,128.766z"/>
		<path clip-path="url(#SVGID_20_)" fill="none" stroke="#FFFFFF" stroke-width="5.709" d="M175.918,128.766L175.918,128.766
			l2.996,0.582l0.422-2.164c2.731,0.088,4.656-1.314,5.17-3.957c0.477-2.451-0.777-4.252-3.433-5.607
			c-2.407-1.234-2.998-1.967-2.817-2.895c0.199-1.023,1.059-1.178,2.252-0.945c1.24,0.24,2.523,1.158,3.373,2.162l2.182-1.973
			c-0.805-1.117-2.076-2.205-3.609-2.822l0.389-1.998l-2.974-0.578l-0.379,1.951c-2.582-0.107-4.662,1.215-5.171,3.834
			c-0.523,2.689,0.932,4.33,3.447,5.658c2.469,1.295,2.834,1.936,2.658,2.84c-0.186,0.951-0.988,1.191-2.111,0.973
			c-1.288-0.25-2.824-1.24-3.992-2.604l-2.191,1.896c0.926,1.363,2.556,2.865,4.211,3.482L175.918,128.766z"/>
		<g opacity="0.5" clip-path="url(#SVGID_20_)">
			<g>
				<defs>
					<rect id="SVGID_25_" x="142.533" y="64.959" width="81.942" height="80.129"/>
				</defs>
				<clipPath id="SVGID_26_">
					<use xlink:href="#SVGID_25_"  overflow="visible"/>
				</clipPath>
				<path clip-path="url(#SVGID_26_)" fill="#EC1C24" d="M179.125,97.961c0,0-0.559,2.246-2.202,3.873
					c0,0-11.013,8.359-12.511,12.393c-1.499,4.035-6.546,14.645,0.326,18.896c6.875,4.25,31.357,9.207,31.445,1.398
					c0.09-7.809,1.976-18.982-7.06-34.24c-1.813-3.896,4.05-5.398,5.117-6.477c1.065-1.078,1.933-1.129,0.704-3.631
					c-1.228-2.502-1.446-2.553-5.219-3.281c-3.771-0.73-4.555,1.383-7.308,0.848c-2.754-0.535-3.872-2.133-5.731,0.08
					c-1.857,2.211,2.396,5.318,3.188,7.119C180.669,96.738,179.125,97.961,179.125,97.961"/>
				<path clip-path="url(#SVGID_26_)" fill="#EC1C24" d="M180.619,97.312c0,0-1.02-0.488-1.818,0.096
					c-0.799,0.582-0.799,0.582-0.283,1.459c0.515,0.879,6.58-0.336,10.027,1.328c3.448,1.666,0.422-4.113,0.547-2.459
					C189.215,99.395,181.639,97.801,180.619,97.312"/>
				<path clip-path="url(#SVGID_26_)" fill="#F69D81" d="M177.078,128.768L177.078,128.768l2.996,0.58l0.422-2.162
					c2.731,0.086,4.656-1.316,5.17-3.959c0.477-2.451-0.777-4.25-3.433-5.607c-2.407-1.234-2.998-1.967-2.817-2.895
					c0.199-1.023,1.059-1.178,2.252-0.945c1.24,0.24,2.523,1.158,3.373,2.162l2.182-1.973c-0.805-1.117-2.076-2.205-3.609-2.822
					l0.389-1.998l-2.973-0.578l-0.38,1.951c-2.582-0.107-4.661,1.215-5.171,3.834c-0.523,2.689,0.932,4.33,3.447,5.658
					c2.469,1.297,2.834,1.936,2.658,2.84c-0.186,0.951-0.988,1.191-2.111,0.973c-1.288-0.25-2.824-1.24-3.992-2.604l-2.191,1.896
					c0.926,1.363,2.556,2.865,4.211,3.484L177.078,128.768z"/>
			</g>
		</g>
		<g opacity="0.75" clip-path="url(#SVGID_20_)">
			<g>
				<defs>
					<rect id="SVGID_27_" x="140.213" y="64.959" width="81.942" height="80.129"/>
				</defs>
				<clipPath id="SVGID_28_">
					<use xlink:href="#SVGID_27_"  overflow="visible"/>
				</clipPath>
				<path clip-path="url(#SVGID_28_)" fill="#008CC7" d="M176.805,97.961c0,0-0.559,2.246-2.202,3.873
					c0,0-11.013,8.359-12.511,12.393c-1.499,4.035-6.547,14.645,0.326,18.896c6.875,4.25,31.356,9.207,31.445,1.398
					c0.09-7.809,1.975-18.982-7.06-34.24c-1.813-3.896,4.05-5.398,5.116-6.477s1.934-1.129,0.705-3.631
					c-1.228-2.502-1.446-2.553-5.219-3.281c-3.771-0.73-4.555,1.383-7.308,0.848c-2.754-0.535-3.872-2.133-5.731,0.08
					c-1.857,2.211,2.396,5.318,3.188,7.119C178.349,96.738,176.805,97.961,176.805,97.961"/>
				<path clip-path="url(#SVGID_28_)" fill="#006893" d="M178.299,97.312c0,0-1.02-0.488-1.818,0.096
					c-0.8,0.582-0.8,0.582-0.283,1.459c0.515,0.879,6.58-0.336,10.027,1.328c3.448,1.666,0.422-4.113,0.547-2.459
					C186.895,99.395,179.318,97.801,178.299,97.312"/>
				<path clip-path="url(#SVGID_28_)" fill="#77BCE1" d="M174.758,128.768L174.758,128.768l2.996,0.58l0.422-2.162
					c2.731,0.086,4.656-1.316,5.17-3.959c0.477-2.451-0.777-4.25-3.433-5.607c-2.407-1.234-2.998-1.967-2.817-2.895
					c0.199-1.023,1.059-1.178,2.252-0.945c1.24,0.24,2.523,1.158,3.373,2.162l2.182-1.973c-0.805-1.117-2.076-2.205-3.609-2.822
					l0.389-1.998l-2.974-0.578l-0.379,1.951c-2.582-0.107-4.662,1.215-5.171,3.834c-0.523,2.689,0.932,4.33,3.447,5.658
					c2.469,1.297,2.834,1.936,2.658,2.84c-0.186,0.951-0.988,1.191-2.111,0.973c-1.288-0.25-2.824-1.24-3.992-2.604l-2.191,1.896
					c0.926,1.363,2.556,2.865,4.211,3.484L174.758,128.768z"/>
			</g>
		</g>
		<g opacity="0.5" clip-path="url(#SVGID_20_)">
			<g>
				<defs>
					<rect id="SVGID_29_" x="550.371" y="1.734" width="109.383" height="91.963"/>
				</defs>
				<clipPath id="SVGID_30_">
					<use xlink:href="#SVGID_29_"  overflow="visible"/>
				</clipPath>
				<polygon clip-path="url(#SVGID_30_)" fill="#D1232A" points="608.549,18.339 584.551,88.119 596.99,91.092 620.988,21.313 				
					"/>
				<polygon clip-path="url(#SVGID_30_)" fill="#E49179" points="578.744,22.113 567.371,55.178 631.383,70.48 642.754,37.416 				
					"/>
			</g>
		</g>
		<g opacity="0.75" clip-path="url(#SVGID_20_)">
			<g>
				<defs>
					<rect id="SVGID_31_" x="548.85" y="-0.614" width="109.383" height="91.963"/>
				</defs>
				<clipPath id="SVGID_32_">
					<use xlink:href="#SVGID_31_"  overflow="visible"/>
				</clipPath>
				<polygon clip-path="url(#SVGID_32_)" fill="#008CC7" points="607.027,15.991 583.029,85.77 595.467,88.742 619.467,18.965 				
					"/>
				<polygon clip-path="url(#SVGID_32_)" fill="#6AB8DE" points="577.221,19.764 565.85,52.83 629.859,68.133 641.23,35.068 				"/>
			</g>
		</g>
	</g>
	<path clip-path="url(#SVGID_2_)" fill="#FFFFFF" d="M402.935,246.668c-1.855,0.068-3.712,0.129-5.569,0.18
		c-6.342,0.168-6.43-9.482-0.32-9.977c-0.099-0.209-0.179-0.426-0.249-0.648h-8.437v10.646h13.835
		C402.441,246.803,402.688,246.729,402.935,246.668z"/>
	<path clip-path="url(#SVGID_2_)" fill="#FFFFFF" d="M553.37,242.127c0.35-0.055,0.7-0.113,1.049-0.195
		c1.328-0.309,2.28-1.254,2.284-0.027c-0.003-0.863-0.146-1.713-0.357-2.551c-3.277-0.146-6.555-0.275-9.832-0.387
		C548.854,239.891,551.143,240.939,553.37,242.127z"/>
	<path clip-path="url(#SVGID_2_)" fill="#FFFFFF" d="M472.712,245.459c12.815-0.703,25.327-1.021,38.063-0.309
		c3.006-0.812,6.015-1.605,9.035-2.318c-10.453-1.012-21.126-0.762-30.818-0.691c-22.787,0.166-45.425,2.236-68.12,3.623
		c3.083,0.168,6.173,0.367,9.25,0.402C444.303,246.328,458.55,246.236,472.712,245.459z"/>
	<g clip-path="url(#SVGID_2_)">
	</g>
	<g clip-path="url(#SVGID_2_)">
	</g>
	<g clip-path="url(#SVGID_2_)">
		<defs>
			<rect id="SVGID_33_" width="747.193" height="258.311"/>
		</defs>
		<clipPath id="SVGID_34_">
			<use xlink:href="#SVGID_33_"  overflow="visible"/>
		</clipPath>
		<g opacity="0.5" clip-path="url(#SVGID_34_)">
			<g>
				<defs>
					<rect id="SVGID_35_" x="459.822" y="31.604" width="121.68" height="89.783"/>
				</defs>
				<clipPath id="SVGID_36_">
					<use xlink:href="#SVGID_35_"  overflow="visible"/>
				</clipPath>
				<path clip-path="url(#SVGID_36_)" fill="#D54134" d="M493.002,94.518c0,0-9.137,4.977,0,12.695c0,0,43.854,4.26,45.113,3.609
					c1.258-0.65,23.668-23.225,23.668-23.225s-0.436-1.359-2.059-1.133c-1.623,0.229-4.594-5.75-2.799-6.477
					c1.791-0.725,3.291-3.535,3.291-3.535l-12.645-0.646"/>
				<path clip-path="url(#SVGID_36_)" fill="#E9A58E" d="M494.824,95.27c0,0-4.826,7.746,0.104,8.949
					c4.93,1.201,43.539,2.881,43.539,2.881l20.131-18.58c0,0-3.26-4.992-3.074-5.609c0.184-0.617-18.805,16.025-18.805,16.025
					L494.824,95.27z"/>
				<path clip-path="url(#SVGID_36_)" fill="#D64D3B" d="M536.754,97.838c0,0-0.65,7.482,0.824,9.389"/>
				<path clip-path="url(#SVGID_36_)" fill="#E08067" d="M490.961,75.994c0,0-10,1.168-8.885,7.408
					c1.113,6.238,0.98,6.969,2.734,7.67c1.758,0.699,21.443,9.303,23.766,8.977c2.324-0.326,43.588-13.469,44.123-14.727
					c0.533-1.262-4.639-2.668-4.604-4.092c0.037-1.426-0.289-3.75,1.535-4.244c1.828-0.492-0.377-2.359-2.146-3.486"/>
				<path clip-path="url(#SVGID_36_)" fill="#F2CFC0" d="M486.236,81.633c0,0-3.838,5.752-1.287,7.051s24.299,7.719,24.299,7.719
					l39.705-12.449c0,0-3.164-5.049-1.744-5.672c1.418-0.623-37.648,11.918-37.648,11.918L486.236,81.633z"/>
				<path clip-path="url(#SVGID_36_)" fill="#D1232A" d="M530.582,52.447c0,0-39.303,10.262-39.273,12.152
					c0.027,1.891-2.908,9.646,1.664,11.846c4.574,2.201,24.617,6.607,26.152,5.742c1.539-0.869,36.5-13.361,37.395-13.725
					c0.898-0.363,0.004-1.66-1.289-2.424c-1.291-0.768-2.012-5.404,0.414-6.928c2.426-1.525-18.824-7.777-20.418-7.316
					C533.635,52.254,530.582,52.447,530.582,52.447"/>
				<path clip-path="url(#SVGID_36_)" fill="#EEBAA7" d="M492.719,65.98c0,0-2.203,6.232,1.143,8.133
					c3.35,1.896,25.738,5.857,27.312,5.398c1.572-0.457,28.533-10.879,30.592-11.406c2.057-0.525-0.152-6.137,0.646-7.197
					s-32.316,10.938-32.316,10.938S493.164,64.316,492.719,65.98"/>
				<path clip-path="url(#SVGID_36_)" fill="#D1232A" d="M519.896,70.424c0,0-0.648,7.484,0.824,9.389"/>
				<path clip-path="url(#SVGID_36_)" fill="#E49179" d="M509.064,88.357c0,0-0.816,8.525,0.096,9.107"/>
			</g>
		</g>
		<g opacity="0.75" clip-path="url(#SVGID_34_)">
			<g>
				<defs>
					<rect id="SVGID_37_" x="458.281" y="29.568" width="121.68" height="89.783"/>
				</defs>
				<clipPath id="SVGID_38_">
					<use xlink:href="#SVGID_37_"  overflow="visible"/>
				</clipPath>
				<path clip-path="url(#SVGID_38_)" fill="#0093CB" d="M491.461,92.484c0,0-9.139,4.977,0,12.693c0,0,43.854,4.26,45.113,3.609
					c1.256-0.65,23.668-23.225,23.668-23.225s-0.436-1.359-2.059-1.131c-1.623,0.227-4.594-5.752-2.799-6.479
					c1.791-0.725,3.291-3.535,3.291-3.535l-12.645-0.645"/>
				<path clip-path="url(#SVGID_38_)" fill="#87C3E3" d="M493.283,93.236c0,0-4.826,7.744,0.104,8.947
					c4.928,1.201,43.539,2.883,43.539,2.883l20.131-18.582c0,0-3.26-4.99-3.074-5.609c0.184-0.617-18.805,16.027-18.805,16.027
					L493.283,93.236z"/>
				<path clip-path="url(#SVGID_38_)" fill="#0097CE" d="M535.213,95.803c0,0-0.65,7.482,0.824,9.387"/>
				<path clip-path="url(#SVGID_38_)" fill="#49ADD9" d="M489.42,73.959c0,0-10,1.168-8.885,7.408
					c1.113,6.24,0.979,6.969,2.734,7.67c1.758,0.699,21.443,9.305,23.766,8.979c2.324-0.328,43.588-13.471,44.123-14.729
					c0.533-1.26-4.639-2.668-4.604-4.092c0.037-1.426-0.289-3.75,1.535-4.244c1.828-0.492-0.377-2.357-2.146-3.486"/>
				<path clip-path="url(#SVGID_38_)" fill="#BFDCEF" d="M484.695,79.598c0,0-3.838,5.752-1.287,7.053
					c2.551,1.297,24.299,7.717,24.299,7.717l39.705-12.449c0,0-3.164-5.049-1.744-5.672c1.418-0.623-37.648,11.918-37.648,11.918
					L484.695,79.598z"/>
				<path clip-path="url(#SVGID_38_)" fill="#008CC7" d="M529.041,50.412c0,0-39.303,10.262-39.273,12.152
					c0.027,1.891-2.908,9.646,1.664,11.848c4.574,2.199,24.617,6.605,26.152,5.74c1.537-0.867,36.5-13.361,37.395-13.725
					c0.898-0.363,0.004-1.66-1.289-2.424c-1.291-0.766-2.012-5.404,0.414-6.928c2.426-1.525-18.824-7.777-20.418-7.316
					C532.094,50.219,529.041,50.412,529.041,50.412"/>
				<path clip-path="url(#SVGID_38_)" fill="#A4CFE9" d="M491.178,63.947c0,0-2.203,6.232,1.143,8.131
					c3.35,1.898,25.738,5.857,27.312,5.398c1.572-0.457,28.533-10.879,30.592-11.404c2.057-0.527-0.152-6.139,0.646-7.199
					c0.799-1.059-32.316,10.939-32.316,10.939S491.621,62.281,491.178,63.947"/>
				<path clip-path="url(#SVGID_38_)" fill="#008CC7" d="M518.355,68.389c0,0-0.648,7.484,0.824,9.389"/>
				<path clip-path="url(#SVGID_38_)" fill="#6AB8DE" d="M507.521,86.324c0,0-0.814,8.523,0.098,9.105"/>
			</g>
		</g>
		<path clip-path="url(#SVGID_34_)" fill="#FFFFFF" d="M572.08,69.012c0,0-1.822,0.549-1.275,2.371l23.996,79.729
			c0,0,0.549,1.822,2.371,1.273l8.746-2.633c0,0,1.824-0.549,1.273-2.371l-23.994-79.729c0,0-0.549-1.822-2.371-1.273L572.08,69.012
			z"/>
		<path clip-path="url(#SVGID_34_)" fill="none" stroke="#FFFFFF" stroke-width="7.612" d="M572.08,69.012
			c0,0-1.822,0.549-1.275,2.371l23.996,79.729c0,0,0.549,1.822,2.371,1.273l8.746-2.633c0,0,1.824-0.549,1.273-2.371l-23.994-79.729
			c0,0-0.549-1.822-2.371-1.273L572.08,69.012z"/>
		<path clip-path="url(#SVGID_34_)" fill="#FFFFFF" d="M549.459,88.943c0,0-1.82,0.547-1.273,2.369l10.795,35.863
			c0,0,0.547,1.822,2.369,1.273l60.121-18.094c0,0,1.82-0.549,1.273-2.369l-10.795-35.863c0,0-0.547-1.822-2.369-1.275
			L549.459,88.943z"/>
		<path clip-path="url(#SVGID_34_)" fill="none" stroke="#FFFFFF" stroke-width="7.612" d="M549.459,88.943
			c0,0-1.82,0.547-1.273,2.369l10.795,35.863c0,0,0.547,1.822,2.369,1.273l60.121-18.094c0,0,1.82-0.549,1.273-2.369l-10.795-35.863
			c0,0-0.547-1.822-2.369-1.275L549.459,88.943z"/>
		<g opacity="0.5" clip-path="url(#SVGID_34_)">
			<g>
				<defs>
					<rect id="SVGID_39_" x="514.006" y="29.473" width="147.855" height="146.02"/>
				</defs>
				<clipPath id="SVGID_40_">
					<use xlink:href="#SVGID_39_"  overflow="visible"/>
				</clipPath>
				
					<rect x="546.258" y="103.14" transform="matrix(-0.2882 -0.9576 0.9576 -0.2882 654.8039 705.968)" clip-path="url(#SVGID_40_)" fill="#D1232A" width="87.067" height="12.94"/>
				
					<rect x="565.628" y="66.582" transform="matrix(-0.2882 -0.9576 0.9576 -0.2882 659.5762 690.0436)" clip-path="url(#SVGID_40_)" fill="#E49179" width="41.258" height="66.589"/>
			</g>
		</g>
		<g opacity="0.75" clip-path="url(#SVGID_34_)">
			<g>
				<defs>
					<rect id="SVGID_41_" x="511.201" y="27.928" width="147.855" height="146.02"/>
				</defs>
				<clipPath id="SVGID_42_">
					<use xlink:href="#SVGID_41_"  overflow="visible"/>
				</clipPath>
				
					<rect x="543.455" y="101.594" transform="matrix(-0.2882 -0.9576 0.9576 -0.2882 652.6716 701.2931)" clip-path="url(#SVGID_42_)" fill="#008CC7" width="87.067" height="12.942"/>
				
					<rect x="562.825" y="65.037" transform="matrix(-0.2882 -0.9576 0.9576 -0.2882 657.4451 685.3697)" clip-path="url(#SVGID_42_)" fill="#6AB8DE" width="41.258" height="66.589"/>
			</g>
		</g>
		<path clip-path="url(#SVGID_34_)" fill="none" stroke="#929497" stroke-width="0.476" d="M678.244,47.406
			c0,0-10.541,0.357-27.1,8.787"/>
		<polygon clip-path="url(#SVGID_34_)" fill="#929497" points="646.961,58.324 651.529,53.43 653.607,57.51 		"/>
	</g>
	<g clip-path="url(#SVGID_2_)">
		<text transform="matrix(1 0 0 1 680.9941 50.3579)"><tspan x="0" y="0" fill="#BBBDBF" font-family="'LFTEtica-Regular'" font-size="9.1188">L</tspan><tspan x="4.732" y="0" fill="#BBBDBF" font-family="'LFTEtica-Regular'" font-size="9.1188">O</tspan><tspan x="11.846" y="0" fill="#BBBDBF" font-family="'LFTEtica-Regular'" font-size="9.1188">B</tspan><tspan x="17.754" y="0" fill="#BBBDBF" font-family="'LFTEtica-Regular'" font-size="9.1188">B</tspan><tspan x="23.435" y="0" fill="#BBBDBF" font-family="'LFTEtica-Regular'" font-size="9.1188">Y</tspan><tspan x="28.988" y="0" fill="#BBBDBF" font-family="'LFTEtica-Regular'" font-size="9.1188">IN</tspan><tspan x="38.007" y="0" fill="#BBBDBF" font-family="'LFTEtica-Regular'" font-size="9.1188">G</tspan></text>
	</g>
	<g clip-path="url(#SVGID_2_)">
		<text transform="matrix(1 0 0 1 514.6035 14.6577)"><tspan x="0" y="0" fill="#BBBDBF" font-family="'LFTEtica-Regular'" font-size="9.1188">A</tspan><tspan x="5.863" y="0" fill="#BBBDBF" font-family="'LFTEtica-Regular'" font-size="9.1188">C</tspan><tspan x="12.082" y="0" fill="#BBBDBF" font-family="'LFTEtica-Regular'" font-size="9.1188">A</tspan><tspan x="18.191" y="0" fill="#BBBDBF" font-family="'LFTEtica-Regular'" font-size="9.1188">D</tspan><tspan x="24.685" y="0" fill="#BBBDBF" font-family="'LFTEtica-Regular'" font-size="9.1188">E</tspan><tspan x="30.22" y="0" fill="#BBBDBF" font-family="'LFTEtica-Regular'" font-size="9.1188">M</tspan><tspan x="38.271" y="0" fill="#BBBDBF" font-family="'LFTEtica-Regular'" font-size="9.1188">I</tspan><tspan x="40.715" y="0" fill="#BBBDBF" font-family="'LFTEtica-Regular'" font-size="9.1188">C</tspan></text>
	</g>
	<g clip-path="url(#SVGID_2_)">
		<text transform="matrix(1 0 0 1 520.1104 25.1812)"><tspan x="0" y="0" fill="#BBBDBF" font-family="'LFTEtica-Regular'" font-size="9.1188">A</tspan><tspan x="6.118" y="0" fill="#BBBDBF" font-family="'LFTEtica-Regular'" font-size="9.1188">F</tspan><tspan x="11.198" y="0" fill="#BBBDBF" font-family="'LFTEtica-Regular'" font-size="9.1188">F</tspan><tspan x="15.903" y="0" fill="#BBBDBF" font-family="'LFTEtica-Regular'" font-size="9.1188">A</tspan><tspan x="22.013" y="0" fill="#BBBDBF" font-family="'LFTEtica-Regular'" font-size="9.1188">I</tspan><tspan x="24.456" y="0" fill="#BBBDBF" font-family="'LFTEtica-Regular'" font-size="9.1188">R</tspan><tspan x="30.365" y="0" fill="#BBBDBF" font-family="'LFTEtica-Regular'" font-size="9.1188">S</tspan></text>
	</g>
	<g clip-path="url(#SVGID_2_)">
		<defs>
			<rect id="SVGID_43_" width="747.193" height="258.311"/>
		</defs>
		<clipPath id="SVGID_44_">
			<use xlink:href="#SVGID_43_"  overflow="visible"/>
		</clipPath>
		<path clip-path="url(#SVGID_44_)" fill="none" stroke="#929497" stroke-width="0.476" d="M512.039,20.341
			c0,0-14.656,9.237,5.498,26.354"/>
		<polygon clip-path="url(#SVGID_44_)" fill="#929497" points="521.115,49.734 514.838,47.408 517.803,43.918 		"/>
	</g>
	
		<line clip-path="url(#SVGID_2_)" fill="none" stroke="#929497" stroke-width="1.277" x1="232.824" y1="188.576" x2="462.721" y2="188.576"/>
	<rect x="273.359" y="177.936" clip-path="url(#SVGID_2_)" fill="#FFFFFF" width="150.199" height="24.174"/>
	<g clip-path="url(#SVGID_2_)">
		<text transform="matrix(1 0 0 1 280.332 193.3687)"><tspan x="0" y="0" fill="#929497" font-family="'LFTEtica-Regular'" font-size="13.3212">U</tspan><tspan x="9.258" y="0" fill="#929497" font-family="'LFTEtica-Regular'" font-size="13.3212">N</tspan><tspan x="18.676" y="0" fill="#929497" font-family="'LFTEtica-Regular'" font-size="13.3212">TI</tspan><tspan x="29.799" y="0" fill="#929497" font-family="'LFTEtica-Regular'" font-size="13.3212">L </tspan><tspan x="39.576" y="0" fill="#929497" font-family="'LFTEtica-Regular'" font-size="13.3212">V</tspan><tspan x="47.343" y="0" fill="#929497" font-family="'LFTEtica-Regular'" font-size="13.3212">O</tspan><tspan x="57.254" y="0" fill="#929497" font-family="'LFTEtica-Regular'" font-size="13.3212">TI</tspan><tspan x="68.377" y="0" fill="#929497" font-family="'LFTEtica-Regular'" font-size="13.3212">N</tspan><tspan x="77.795" y="0" fill="#929497" font-family="'LFTEtica-Regular'" font-size="13.3212">G </tspan><tspan x="90.01" y="0" fill="#929497" font-family="'LFTEtica-Regular'" font-size="13.3212">B</tspan><tspan x="98.469" y="0" fill="#929497" font-family="'LFTEtica-Regular'" font-size="13.3212">E</tspan><tspan x="106.128" y="0" fill="#929497" font-family="'LFTEtica-Regular'" font-size="13.3212">G</tspan><tspan x="115.719" y="0" fill="#929497" font-family="'LFTEtica-Regular'" font-size="13.3212">I</tspan><tspan x="119.116" y="0" fill="#929497" font-family="'LFTEtica-Regular'" font-size="13.3212">NS</tspan></text>
	</g>
</g>
</svg>
